<?xml version="1.0" standalone="no"?>
<!DOCTYPE svg PUBLIC "-//W3C//DTD SVG 20010904//EN"
 "http://www.w3.org/TR/2001/REC-SVG-20010904/DTD/svg10.dtd">
<svg version="1.0" xmlns="http://www.w3.org/2000/svg"
 width="700.000000pt" height="700.000000pt" viewBox="0 0 700.000000 700.000000"
 preserveAspectRatio="xMidYMid meet">
<metadata>
Created by potrace 1.14, written by Peter Selinger 2001-2017
</metadata>
<g transform="translate(0.000000,700.000000) scale(0.100000,-0.100000)"
fill="#000000" stroke="none">
<path d="M0 3500 l0 -3500 298 2 297 3 0 3190 c0 1755 3 3195 7 3200 4 7 309
10 895 9 488 -1 890 -2 893 -3 3 0 5 -355 5 -788 l0 -788 1090 0 c600 0 1097
1 1105 3 13 3 15 132 16 1088 l2 1084 -2304 0 -2304 0 0 -3500z"/>
<path d="M6408 6993 c-2 -5 -4 -1199 -3 -2655 0 -1798 -3 -2648 -10 -2649 -5
0 -409 -2 -897 -2 -585 -1 -889 1 -891 8 -2 6 -3 313 -2 683 0 369 -2 672 -5
673 -3 0 -500 1 -1105 1 l-1100 1 -3 -1184 c-2 -651 -6 -1338 -9 -1527 l-5
-342 2311 0 2311 0 0 3500 0 3500 -294 0 c-162 0 -296 -3 -298 -7z"/>
</g>
</svg>
